<svg version="1" xmlns="http://www.w3.org/2000/svg" width="1608" height="1608" viewBox="0 0 1206.000000 1206.000000"><path d="M440.9.4c-.2.2-4.6.7-9.8 1-12.8.8-13.4 1.6-3.5 4.1 18.1 4.7 73 23.4 87.9 30 1.7.7 8.9 3.8 16 6.8 47.7 20.1 96.6 48.8 131.5 77.1 34 27.6 63.4 59.9 83.2 91 2.9 4.7 5.6 8.5 6 8.6.3 0 2.5-3.5 4.8-7.8 3.8-6.8 8.2-13.5 13-19.6 3.6-4.6 15.6-15.9 21.8-20.5 12.1-9.1 35.5-19.7 47.6-21.7 2.1-.3 4.6-.7 5.5-.9.9-.1 3.5-.6 5.9-1l4.3-.7-3.9-3.6c-2.2-2.1-6.4-6-9.4-8.7-45.1-41.6-108-77.1-179.8-101.6-34-11.7-81.3-23.2-108.5-26.4-2.7-.4-5.7-.8-6.5-1-.8-.3-4.4-.7-8-1-3.6-.4-7.2-.8-8-1-.8-.2-4.9-.7-9-1-4.1-.3-9.7-.8-12.5-1.1-5.8-.6-68.1-1.4-68.6-1zM855 192.6c-6.4 1.3-17.5 4.6-21.8 6.6-22.8 10.5-39.9 32.4-44.6 56.8-1.7 8.8-1.3 24.9.8 33.5 2 8 9.1 23.3 13.2 28.5 16.8 21.1 41.2 32.7 66.9 31.5 10.7-.4 14.5-1.2 23.9-4.6 50.9-18.6 68.3-81.1 34.4-123.6-9.5-12-24.7-22-39.8-26.3-7.4-2.1-27.2-3.5-33-2.4zM512 293.7c0 .2 2.4 1.5 5.3 2.8 35 16.1 75.3 47.4 100.1 77.7 11.3 13.9 26 36.3 28 42.6.4 1.2 1.1 2.2 1.4 2.2.4 0 2.9-2.2 5.5-4.9 10.3-10.6 23.1-16.2 38.6-16.7 5.2-.2 9.5-.5 9.7-.6.7-.8-17.9-24-25.4-31.5-10.4-10.4-12.4-12.2-24.1-21-39.7-30.1-90.2-49.4-132.3-50.7-3.8-.1-6.8-.1-6.8.1zM1004.3 299.2c.3 1.3 2.2 7.7 4.1 14.2 7.2 24.2 14.4 55.9 18.2 80.1.2 1.6.6 4.1.9 5.5.9 4.7 1.1 6.4 4 30 1.9 16.1 2.6 62.4 1.2 78.5-1.8 19.3-1.9 20.4-4.2 34-.3 1.6-.8 4.6-1.1 6.5-2.3 15.9-12.8 49.9-21.1 68.5-2.4 5.5-4.7 10.5-4.9 11.1-.4.8.5 1.1 2.8.8 33.6-4.3 69.4 9.7 91.1 35.5 1.5 1.9 3 3.2 3.2 3 .6-.6 4.3-19.8 5-25.9.3-3 .8-6.9 1-8.5 2.2-16.4 2.2-66.6.1-78-.2-1.1-.7-5.2-1.1-9-1-10-2.9-24.3-4.1-30-.3-1.1-.7-3.6-1-5.5-1.8-11.9-9.7-43.4-14.9-60-13.7-43.4-31.9-83.2-54.4-118.5-7.7-12.1-23.8-34.5-24.8-34.5-.3 0-.3 1 0 2.2zM397 316.4c-15.4 4.2-27.7 16.7-32 32.7-3.7 13.3.6 30.1 10.2 40.5 17.7 19.2 46.9 20 65.2 1.8 13.9-14 17.1-34.7 8-52.6-5.1-10.1-17.4-19.7-28.9-22.7-5.3-1.4-16.9-1.3-22.5.3zM348.9 320.4c-.2.2-3.1.7-6.4 1.1-23.2 2.6-47.8 10.5-75 24.1-17.4 8.6-18.8 9.5-31 17.3-41.4 26.5-78.3 64.3-97.6 100.1-5.3 9.7-5.5 10.6-2.1 8.1 40.9-31 76.8-50.5 117-63.7 9.9-3.3 27.4-8 33-9 1.5-.3 4.3-.9 6.2-1.4 1.9-.5 5.5-1.2 8-1.5 2.5-.3 7.2-1 10.5-1.6 3.3-.5 12.1-1.2 19.5-1.5 7.4-.4 13.6-.7 13.7-.8.1-.1-1-3.3-2.4-7.1-1.4-3.9-2.7-8-2.9-9.3-.2-1.2-.6-3.4-.9-5-.6-3.4-.7-19.1-.1-20 .2-.4.7-2.7 1.1-5.1.8-5.3 3.7-12.9 7.6-19.9 2.6-4.6 3.1-6 1.8-4.8zM477.1 341.2c3.6 12.2 2.9 30.6-1.5 41.2-.8 2-1.5 3.9-1.5 4.1-.2 1.8-6 11.9-9.7 16.7l-4.5 5.7 7.3 2.1c12.3 3.6 14 4.1 23.3 7.8 15.5 6 36.6 17.5 45.1 24.5 1 .9 3.7 3 5.9 4.7 7.6 5.9 21.7 20.6 29 30.2 11.3 14.9 19.6 30 27.5 49.9 9.3 23.2 18.9 38 30.2 46.3 3.8 2.9 13.2 6.9 14 6 .3-.2.2-2.4-.2-4.7-.5-2.3-1.1-6-1.4-8.2-1.3-8.6-1.9-11.5-5.1-25.1-13.6-56.1-42.2-107.2-83-147.9-21.2-21.3-45.8-40.1-67.7-51.9l-8.7-4.7 1 3.3zM964.5 347.5c-22.7 29.7-59.4 47.5-98.1 47.6l-11.3.1 3.5 7.6c13.1 28.4 24.1 63.4 28.8 91.2 1.2 7.4 1.6 9.8 2 13 .6 4.2 1.5 13.5 2.1 21 .5 6.7.5 33.8 0 40-.2 2.5-.7 7.6-1 11.5-.3 3.8-.8 7.9-1 9-.2 1.1-.7 4.1-1 6.7-.3 2.6-.7 5.3-1 6-.2.7-.6 2.9-.9 4.8-4.6 29.6-21.4 74.2-40.4 107-15.3 26.4-24.3 47.2-28.7 66.3-2.4 10.3-2.7 12.8-2.9 22.7-.2 8.4.1 12 1.8 19.5.7 3.3 4.4 11.2 5.4 11.9.6.3 5.5-4.2 10.9-10.2 13.8-15.2 14.5-16 27.4-32.2 54.4-68.2 92.2-148.6 109.4-232.5.9-4.4 1.8-8.7 2-9.6.4-1.8 1.2-7 2.1-12.7.3-2 .7-4.4.9-5.2.2-.8.7-3.8 1-6.6.3-2.8.7-5.9.9-7 .2-1 .7-4.8 1.1-8.4.3-3.6.8-8.1 1-10 1.5-13.5 2-26.7 2-56 0-29.9-.4-39.2-2-53.5-.3-2.2-.8-6.3-1.1-9-1.5-13.7-5.9-39.3-6.8-40.2-.2-.2-2.9 3.1-6.1 7.2zM681.5 420.1c-20 6.8-30 28.2-22.5 48.2 2.5 6.6 9.2 14.5 15.5 18.2 11 6.4 27.2 6.2 38-.5 5.5-3.4 12.2-11.6 14.6-17.8 7.4-19.7-2.3-41-22.1-48.1-6.2-2.3-16.8-2.2-23.5 0zM350.8 449.4c-.1.2-4.1.6-8.8 1-28.1 2.2-66.2 11-93.5 21.8C236.3 477 219 485.1 219 486c0 .4 2.1 1.5 4.8 2.5 21.5 8.2 40.1 29.6 45.6 52.7l1.1 4.7 8.5-7c27.2-22.4 64.8-40.4 94.5-45.3 17-2.8 45.6-3.9 56-2.2 2.2.4 6 .9 8.5 1.2 6 .6 8.4 1.1 23 4.4 37.6 8.7 58.4 8.4 72.6-1.2 2.6-1.8 4.7-3.7 4.7-4.2-.3-2.1-23.1-12.9-43.3-20.4-19.2-7.2-39.5-13-55-15.8-1.4-.2-4.7-.9-7.5-1.4-17.7-3.3-35.5-4.7-59.2-4.8-12.1 0-22.3.1-22.5.2zM766.1 488.1c.7 5.5.4 48-.4 53.4-.2 1.6-.7 5.2-1.1 8-.4 2.7-1.1 6.8-1.6 9s-1.2 5.6-1.5 7.5c-3.2 18.5-14.2 47.9-24.1 64.1-2 3.3-3.5 6.1-3.3 6.3.2.1 3.4 1 7 2 12.1 3.2 23.4 11.8 29.7 22.7l2.9 5.1 3.5-8.4c9.9-23.3 14-44.4 14-72.3 0-16.7-1.1-31.2-3.2-41.5-.6-2.5-1.2-5.6-1.4-7-2.5-15.4-13-43.3-19.5-51.9-1.7-2.3-1.8-2.2-1 3zM729.1 500c-11.8 10.1-29.9 14.5-46.6 11.3-3.8-.7-7.1-1.3-7.3-1.3-.2 0-.1 1.2.2 2.7 1 4.6 1.5 7.5 2.1 11.8.3 2.2.8 5.1 1.1 6.5.7 3.9.8 25.7 0 34-.5 6.1-2.9 18.3-5 26-5.7 20.9-19.7 44.3-38 63.7-10.1 10.8-18.2 23.5-21.2 33.2-1.5 4.9-1.9 15.7-.6 16.5 2.3 1.4 28.6-19.6 44.7-35.8 13.8-13.9 14.1-14.2 24.4-28.1 18.2-24.4 32.7-54.2 41.2-84.5 1.7-6.3 3.3-12.9 3.6-14.5.2-1.7.8-4.6 1.3-6.5.5-1.9 1.2-5.9 1.5-8.9.4-3 .9-6.3 1.1-7.5.6-3.1 1.7-21.6 1.3-21.6-.2.1-1.9 1.4-3.8 3zM184.5 511.8c-4.5.9-15.2 5.7-18.5 8.1-20.7 15.5-26.6 43.4-13.6 65.5 8.1 13.8 25.3 23.6 41.2 23.6 28.4 0 49.6-21.2 49.7-49.5.1-21.7-14.3-40.5-35.9-46.8-4.7-1.4-18.3-1.9-22.9-.9zM389.5 535.9c-31.9 13.6-60.1 29.8-87 50-5.5 4.1-10.2 7.7-10.5 8-.3.4-3 2.6-6 5.1-23.9 19.4-56.2 55.3-73.3 81.3-18.2 28-35.9 63.4-45.5 91.2-2.5 7.4-7.2 22.7-7.7 25.6-.4 2-.7 3.3-2 7.7-.7 2.3-.6 2.3 5-.7 6.6-3.5 18.6-7.8 24.1-8.6 2.2-.4 5-.8 6.4-1.1 3.1-.6 20.9-.6 21.8 0 .4.2 2.9.7 5.5 1 5.1.7 16.8 4.7 22.9 7.7 2.1 1.1 4.1 1.9 4.5 1.9.5 0 .9-3.5.9-7.8.1-8.3 1.2-27.1 1.8-31.2.3-1.4.7-4.3 1-6.5.4-2.2.8-5.1 1.1-6.5.2-1.4.7-3.6.9-5 1.4-8 5.2-21.9 8.7-32 5.1-14.4 18.7-42.8 21.2-43.8.4-.2.7-.8.7-1.4 0-1.2 11.8-17.8 17.6-24.8 6.4-7.7 27.6-28.2 35.5-34.2 4.1-3.2 12.4-9.5 18.6-14 6.1-4.6 14.1-10.9 17.7-14.2 12.2-10.8 23.9-27.3 26.7-37.6 1.4-5.2 2-13.8 1.1-14.4-.4-.2-5.6 1.7-11.7 4.3zM120.4 591.2c-11.4 21.3-19.8 44.3-26.8 73.8-4.2 17.5-8.2 39-9.1 48.5-.3 3.9-.8 7.7-1 8.5-1.9 7.3-2.7 58.8-1.2 74.5 1.4 14.1 3.6 27.9 6.8 41.5 2 8.7 9.9 33.3 10.5 32.8.1-.2.5-3 .9-6.3 3-32.3 6.8-54.6 14.6-85.5 7.4-30 16.5-54.8 29.5-81 7-14 21.2-38.3 25.2-43.1 5.9-7 13-18 12-18.4-.7-.2-3.5-.9-6.1-1.5-20.8-4.5-40.6-20.8-51-41.8l-2.6-5.3-1.7 3.3zM720.9 655.4c-23.2 6-31.5 33.7-15.4 51.4 15.1 16.7 43.6 11.3 51.5-9.7 5.8-15.3-.4-31.9-14.5-39-6.9-3.5-14.7-4.4-21.6-2.7zM1013.7 665.5c-.1.2-2.7.5-5.7.8-23.7 2.5-45.8 20.4-53.8 43.4-1.2 3.4-2.5 8.6-3 11.6-.8 5.3-.7 18.3.2 22.2 1.4 6.4 2.1 8.6 4.3 13.9 5.8 14.1 17.8 26.7 31.6 33.4 10.9 5.3 17 6.6 30.2 6.5 9.3 0 12.3-.5 19.4-2.8 31.2-10.5 50.1-41.7 44.6-73.6-5.5-31-30.3-53.3-61.8-55.2-3.1-.2-5.8-.3-6-.2zM422 684.3c0 1.2 1.3 7.6 2.9 14.2 12.7 52 44.5 96.7 89.6 125.7 6.3 4.1 20.5 11.8 21.7 11.8.3 0-.1-2.4-.9-5.3-1.3-4.9-1.3-15.7.1-21.6.9-4 6.2-14.5 8.5-16.9 2.5-2.5 3.1-2.2-8.9-5.3-15.9-4.1-33.1-12.5-46-22.4-13-10-26.8-27.6-34.4-43.9-2-4.2-3.6-7.8-3.6-8 0-.2-2.1-4.1-4.6-8.6-5.3-9.4-12-16.7-18.1-19.9-5.3-2.7-6.3-2.6-6.3.2zM330.7 701.2c-11.1 31.1-18.6 57.3-21.3 74.5-.3 1.9-.8 4.5-1 5.7-.2 1.1-.7 3.7-1 5.6-.3 1.9-.7 4.6-.9 5.9-3 17.7-4 33.8-4 61.1 0 21.7.7 38.4 1.9 46 .3 1.4.7 4.7 1.1 7.5.5 4.4 1.1 8.2 3 19 .5 3.4 1.2 6.8 2 10.5.3 1.4.7 3.4.9 4.5 3.2 15.7 12 44.9 19 63 9.7 24.8 24.8 54.1 37.1 72.3l2.3 3.3 1.2-5.3c3.4-14.1 12.2-29.8 22.9-40.7 11.1-11.4 22-18.5 37.2-24 2.4-.9 2.2-1.2-10.5-14.3-21.9-22.5-37.6-44.3-49.4-68.8-8.6-17.8-16.7-42.2-18.7-56-.4-2.4-.8-4.7-1.1-5.1-.2-.4-.6-2.6-.9-5-.2-2.4-.9-7.8-1.4-11.9-1.5-11.8-.4-50.4 1.7-66 1.9-13.3 2.4-44.8.9-51-.4-1.4-1.2-4.8-1.8-7.5-2.5-11.1-12.4-27.5-16.4-27.5-.7 0-2 1.9-2.8 4.2zM672.1 703.6c-29.6 25.7-66.7 36.4-105 30.2-6.4-1.1-12.7-2.1-14.1-2.4-1.4-.3-6.9-.8-12.3-1.1-11.2-.7-19 .7-24.9 4.3-6.2 3.9-6.5 3.6 7.7 9.6 9.2 3.9 27.4 9.9 29.5 9.7.3 0 1.7.4 3.2 1 2.8 1.1 16.4 3.6 25.3 4.6 2.8.4 6.1.8 7.5 1.1 3.7.6 33.4.6 37.2 0 1.8-.3 5.8-.8 8.8-1 11.1-.9 43.4-8.8 51.5-12.6 1.1-.5 4.9-2.1 8.5-3.5 3.6-1.5 9.5-4.3 13.2-6.3l6.8-3.6-7.8-3.8c-11.2-5.4-18.9-13.2-23.8-24.3-1.3-3.1-2.4-6.2-2.4-7 0-2.4-1-1.8-8.9 5.1zM754.5 741.2c-8 7.9-35.2 26.1-50.1 33.6-17.3 8.7-42.5 17.5-56.4 19.8-1.4.2-3.4.6-4.5.9-1.1.2-4.9.7-8.5 1-3.6.4-7.8.8-9.5 1-1.6.2-3.3.4-3.8.4-.4.1 0 1.5.9 3.2 5.1 10 5.6 24.8 1.1 36-1.5 3.6-2.7 6.8-2.7 7.1 0 1 17.1-3.1 26.5-6.3 42-14.3 87.5-53.1 106.4-90.7 3.5-7 3.7-9 .6-6zM1118.4 766.2c-9.2 16.3-20.8 35.2-31.2 50.3-8.9 13.1-22.4 31.4-25.4 34.6-.7.8-3.5 4.1-6.2 7.4-12.5 15.6-31.6 35.2-47.6 49-29.6 25.4-57.9 42.8-91.7 56l-12.1 4.8 3.1 2.5c15.4 12.5 28.4 33.4 32.1 51.7.3 1.1.9 4 1.4 6.4.6 2.4 1 9.7.9 16.2-.1 6.6 0 11.9.2 11.9.7 0 15.6-10.4 23.6-16.4 58.7-44.4 114-125.2 141-206.1 7.8-23.5 15.2-53.7 17-69.5.3-3 .8-6.3 1.1-7.3 1.1-3.7-.6-1.3-6.2 8.5z"/><path d="M917.4 789.7c-6.5 9.8-19 26.4-25 33.3-9.3 10.7-27.8 28.5-36.8 35.5-2.1 1.6-4.5 3.6-5.2 4.2-.7.7-1.7 1.3-2.2 1.3-.6 0-1.2.4-1.4.9-.7 1.9-22.4 15.5-35.1 22-15.2 7.9-30.4 14-46.5 18.7-11.5 3.4-31.8 7.8-40.7 8.9-2.7.3-6.3.7-8 .9-5.4.7-16.8 1.6-27 2.1-13 .8-20.6 1.6-34.6 4-6.7 1.2-21.2 5.9-28.4 9.4-10.9 5.2-19.4 11.7-23.7 18.2-3.2 4.8-3.4 5.5-1.8 6.1 2.5.9 32.7 5.6 44 6.7 28.7 3 71.3 3.3 94 .7 1.9-.3 6.2-.7 9.5-1.1 6.1-.6 10-1.2 14.5-2 1.4-.3 4.8-.7 7.5-1.1 6.3-.7 30-5.7 40.2-8.4 10.1-2.7 31-8.9 33.7-10.1 1.2-.4 6.6-2.5 12.1-4.4 5.5-2 11.9-4.5 14.2-5.6 2.4-1 4.5-1.9 4.8-1.9 1.5 0 38.5-17.9 44.5-21.5 1.9-1.2 8-4.8 13.5-8 26.9-15.8 59.8-40.6 77.9-58.6 3.1-3.1 3.5-3.9 2-4-33.3-.9-66.4-19.6-84.1-47.6-2.6-4-5-7.3-5.4-7.3-.4 0-3.3 3.9-6.5 8.7zM570.7 792.7c-2.6 1-6.9 3.7-9.6 6-17 14.7-11.1 43 10.5 49.8 10.3 3.2 20.9.7 29-6.7 8.2-7.5 11.2-19 8-30-2-7-8.9-14.9-15.4-17.9-6.5-2.9-16.4-3.4-22.5-1.2zM191.5 827.7c-28.5 6.6-47.7 34.6-43.3 63.2 4.4 28.5 29.4 49 58.2 47.6 17.7-.8 31.8-8 42-21.5 27.9-36.7 3.4-89.1-42.3-90.5-4.8-.1-11.2.4-14.6 1.2zM435.2 913.2c-3.3.7-4.2 1.3-3.8 2.5 1.6 4.1 25.9 36.3 38 50.3 1.7 1.9 11.2 11.6 21.1 21.6 33.3 33.4 68.1 58.2 111 79.4 18.5 9.1 31.6 14.7 48.9 20.7 11.5 4 32.1 10.1 39.6 11.8.8.2 5.7 1.3 10.8 2.4 20.2 4.6 43.4 7.7 64.2 8.7l12.5.6-2.2-2.1c-3.3-3.1-10.3-12.6-10.3-13.9 0-.5-.3-1.2-.7-1.4-2.1-.9-8.1-14.9-11-25.2-3.7-13.6-3.6-33.8.2-47.6.8-3 1.5-5.7 1.5-5.9 0-.2-1.2-.1-2.7.3-20.3 4.5-42.5 7-63.3 7-9.9-.1-27.4-1.1-32.3-1.9-1.2-.2-5.3-.9-9.1-1.5-31.6-5-65.8-18.6-94.5-37.7-9.4-6.3-23.6-17-28.7-21.8-24.9-23-41.6-35.1-57.4-41.5-11.8-4.9-23.4-6.6-31.8-4.8zM256.7 953.9c-9.2 7.2-25.4 14.1-39.2 16.6-9.2 1.7-27.6.2-38.7-3l-4.7-1.4 2 5.2c16.2 41.2 43.8 81.6 81 118.7 12.1 12.1 21.6 20.7 32.9 29.9 2.5 2 5.4 4.4 6.4 5.4 7.9 7 40.8 28.8 58.4 38.7 15.9 8.9 56.6 27 57.8 25.7.2-.2-3.8-3.9-8.9-8.3-10.6-9.1-46.6-44.8-54.9-54.4-43.7-50.6-69.8-98.4-81.3-149-1.3-5.8-2.7-12.8-3.1-15.5-.5-2.8-.9-5.3-1-5.8-.1-.4-.2-2.1-.3-3.7 0-1.7-.4-3-.8-2.9-.5 0-3 1.8-5.6 3.8zM830.3 986c-40.3 11-57.8 58.4-34.2 93.1 10.1 14.9 28.3 25.1 46.7 26.2 16.8 1 34.2-5.6 46.2-17.6 18.8-19 23.2-46.8 11.3-71-7.1-14.2-23.3-27-39.3-31.1-8.4-2.1-22.2-1.9-30.7.4zM448.5 1040.6c-33.6 7.1-54.3 43.2-43.4 75.6 8.2 24.7 31.8 41.5 57.3 40.7 24.5-.7 45-15.6 54.2-39.1 2.6-6.5 2.9-8.5 2.9-18.8 0-6.8-.6-13.5-1.4-16.5-4.2-15.2-16.5-30.2-30.1-36.8-13-6.3-26-8-39.5-5.1zM553.9 1104.3c-.2 8.5-4 23.3-8.3 32.4-7.5 15.8-19.9 30.1-34 39.1l-7.7 4.9 11.1 4.1c20.5 7.7 45.7 14.1 65.4 16.6 1.1.2 4.4.6 7.1 1 17.5 2.5 27.7 3.1 55 3.1 29.7 0 44.3-.9 65.5-4.2 1.9-.3 4.4-.6 5.5-.8 23.8-3.1 60.3-12.5 86.5-22.1 15.4-5.7 46-19.5 46-20.7 0-.2-2.6 0-5.7.4-30.2 4-98.7 4.8-124.8 1.4-1.6-.2-5.5-.6-8.5-1-4.7-.5-22-3.3-31.5-5.1-2.4-.4-13.7-3.1-20-4.8-.5-.2-2.3-.6-4-1-7.9-2-29-9.3-38.5-13.3-10.1-4.3-32-15.1-33-16.2-.3-.3-2.1-1.5-4-2.5-1.9-1.1-7.7-4.8-12.7-8.2l-9.3-6.2-.1 3.1z"/></svg>