<?xml version="1.0" standalone="no"?>
<!DOCTYPE svg PUBLIC "-//W3C//DTD SVG 20010904//EN"
 "http://www.w3.org/TR/2001/REC-SVG-20010904/DTD/svg10.dtd">
<svg version="1.0" xmlns="http://www.w3.org/2000/svg"
 width="226.000000pt" height="226.000000pt" viewBox="0 0 226.000000 226.000000"
 preserveAspectRatio="xMidYMid meet">
<metadata>
Created by potrace 1.11, written by Peter Selinger 2001-2013
</metadata>
<g transform="translate(0.000000,226.000000) scale(0.100000,-0.100000)"
fill="#000000" stroke="none">
<path d="M980 2253 c-495 -79 -859 -422 -960 -907 -18 -86 -25 -293 -13 -360
5 -24 6 -24 42 22 109 138 333 288 539 362 49 18 62 27 63 44 0 11 2 29 4 38
2 9 6 35 9 57 23 164 78 277 184 379 131 125 325 161 471 87 98 -49 125 -106
70 -147 -24 -18 -29 -18 -60 -5 -19 8 -54 34 -78 57 -23 23 -59 49 -80 57 -44
19 -138 21 -171 3 -123 -64 -168 -166 -188 -421 l-7 -96 130 0 c148 0 205 -12
234 -50 28 -35 26 -69 -5 -100 -33 -33 -78 -27 -148 21 -72 48 -86 54 -137 59
-45 4 -84 -7 -74 -22 8 -13 7 -853 -1 -874 -10 -26 -61 -50 -92 -42 -14 3 -34
16 -44 27 -19 22 -19 38 -20 736 0 142 0 143 -21 136 -156 -45 -314 -217 -372
-404 -21 -69 -27 -225 -11 -310 28 -147 67 -225 164 -324 131 -135 346 -231
592 -265 65 -9 253 -6 300 4 14 3 41 8 60 11 160 27 380 136 515 257 l50 45
-60 -20 c-76 -26 -202 -21 -286 11 -103 39 -190 134 -229 250 -43 127 -30 276
33 384 50 85 154 162 247 183 60 13 73 14 154 14 127 0 234 -42 254 -99 12
-33 -1 -66 -33 -87 -30 -19 -88 5 -144 58 -72 69 -132 85 -205 54 -73 -30
-125 -109 -149 -221 -40 -198 24 -372 166 -444 49 -25 67 -29 122 -27 190 9
376 216 434 484 34 161 35 378 2 515 -66 273 -210 491 -440 665 -97 73 -300
165 -411 186 -14 2 -43 8 -65 13 -40 9 -287 14 -335 6z m143 -1088 l67 0 0
-428 0 -429 -29 -29 c-40 -39 -82 -39 -122 0 l-29 29 0 437 0 436 23 -8 c12
-4 52 -8 90 -8z"/>
</g>
</svg>
